# xmcd
#
# Track frame offsets: 
#        150
#        13295
#        31717
#        47107
#        62180
#        75600
#        88040
#        100690
#        115747
#        127745
#        139480
#        153317
#        166530
#        176492
#        187212
#        198207
#        212587
#        227430
#        238157
#        249745
#
# Disc length: 3531 seconds
#
# Revision: 1
# Processed by: cddbd v1.5.2PL0 Copyright (c) Steve Scherf et al.
# Submitted via: ExactAudioCopy v0.99pb4
#
DISCID=050dc914
DTITLE=Kenny Rogers and the First Edition - Anthology
DYEAR=2003
DGENRE=Country
TTITLE0=Ruby, Don't Take Your Love to Town
TTITLE1=Something's Burning
TTITLE2=Just Dropped in (to See What Condition My Condition Was In)
TTITLE3=Heed the Call
TTITLE4=But You Know I Love You
TTITLE5=Rueben James
TTITLE6=Love Woman
TTITLE7=Tell It All Brother
TTITLE8=Me and Bobby McGee
TTITLE9=Elvira
TTITLE10=Molly
TTITLE11=Shine On Ruby Mountain
TTITLE12=Where Does Rosie Go
TTITLE13=We All Got to Help Each Other
TTITLE14=Always Leaving, Always Gone
TTITLE15=Sunshine
TTITLE16=Church Without a Nome
TTITLE17=She Even Woke Me Up to Say Goodbye
TTITLE18=Poem for My Little Lady
TTITLE19=For the Good Times
EXTD=Kenny Rogers and the First Edition Anthology
EXTT0=
EXTT1=
EXTT2=
EXTT3=
EXTT4=
EXTT5=
EXTT6=
EXTT7=
EXTT8=
EXTT9=
EXTT10=
EXTT11=
EXTT12=
EXTT13=
EXTT14=
EXTT15=
EXTT16=
EXTT17=
EXTT18=
EXTT19=
PLAYORDER=
